<?xml version="1.0" encoding="UTF-8" standalone="no"?>
<!-- Created with Inkscape (http://www.inkscape.org/) -->

<svg
   width="144mm"
   height="110mm"
   viewBox="0 0 144 110"
   version="1.1"
   id="svg5"
   xml:space="preserve"
   inkscape:version="1.2.2 (732a01da63, 2022-12-09)"
   sodipodi:docname="logo-src.svg"
   xmlns:inkscape="http://www.inkscape.org/namespaces/inkscape"
   xmlns:sodipodi="http://sodipodi.sourceforge.net/DTD/sodipodi-0.dtd"
   xmlns="http://www.w3.org/2000/svg"
   xmlns:svg="http://www.w3.org/2000/svg"><sodipodi:namedview
     id="namedview7"
     pagecolor="#ffffff"
     bordercolor="#000000"
     borderopacity="0.25"
     inkscape:showpageshadow="2"
     inkscape:pageopacity="0.0"
     inkscape:pagecheckerboard="0"
     inkscape:deskcolor="#d1d1d1"
     inkscape:document-units="mm"
     showgrid="false"
     inkscape:zoom="1.5108867"
     inkscape:cx="298.50022"
     inkscape:cy="236.94696"
     inkscape:window-width="1920"
     inkscape:window-height="1046"
     inkscape:window-x="-11"
     inkscape:window-y="-11"
     inkscape:window-maximized="1"
     inkscape:current-layer="layer1" /><defs
     id="defs2"><rect
       x="695.61804"
       y="740.62469"
       width="525.14551"
       height="276.785"
       id="rect441" /></defs><g
     inkscape:label="Слой 1"
     inkscape:groupmode="layer"
     id="layer1"
     transform="translate(-36.489721,-121.42841)"><path
       fill="#ffffff"
       d="m 86.009615,229.83272 c -6.421714,-0.98312 -12.000418,-2.90906 -18.077829,-6.35268 -9.557096,-5.47716 -16.045989,-12.11837 -21.160481,-22.05706 -2.53702,-4.89605 -5.06948,-14.05093 -5.389037,-19.48153 -0.66726,-11.2477 1.445583,-20.42608 6.849483,-29.96291 6.483731,-11.33353 15.49355,-18.95068 27.733793,-23.44041 22.637016,-8.23296 48.387866,0.4912 61.671226,20.86396 0.65761,1.23729 2.22067,4.03743 3.4019,6.3125 1.67211,3.4796 1.89962,3.73202 1.18588,1.72188 -8.27348,-22.78351 -30.59317,-37.34512 -54.874364,-35.9109 -5.190641,0.33203 -13.108231,2.2068 -18.032347,4.35741 -11.305241,5.01951 -19.888116,12.75506 -25.854529,23.39363 -5.257405,9.49633 -7.68964,20.65527 -6.790215,31.60221 0.425512,5.24363 3.246284,14.87064 5.629064,19.494 7.55026,14.46847 19.742554,24.34148 35.146323,28.43785 3.082298,0.88186 9.983976,1.88993 11.843016,1.76988 0.606167,-0.0889 -0.821171,-0.40362 -3.281788,-0.74789 z"
       id="path9"
       style="fill:#000000;stroke-width:0.759894"
       sodipodi:nodetypes="scccccccccccccccss" /><path
       style="fill:#000000;stroke-width:0.0155755"
       d="m 69.918279,196.68735 c -0.07241,-0.0148 -0.256513,-0.0853 -0.322362,-0.12201 -0.105542,-0.0589 -0.210227,-0.18005 -0.273008,-0.31606 -0.06604,-0.14274 -0.07652,-0.17651 -0.105809,-0.33831 -0.03011,-0.16643 -0.02902,-0.21085 0.0098,-0.34948 0.08028,-0.28725 0.216476,-0.50038 0.518072,-0.8104 0.224383,-0.23069 0.265576,-0.28429 0.441232,-0.57513 0.09751,-0.16139 0.23762,-0.43795 0.261251,-0.51566 0.0065,-0.0207 0.02784,-0.0741 0.04762,-0.11667 0.07706,-0.16792 0.193762,-0.56832 0.193999,-0.6659 1.75e-4,-0.0337 -0.034,-0.0764 -0.161306,-0.20255 -0.206791,-0.20464 -0.23528,-0.26683 -0.232763,-0.51007 0.0019,-0.18686 0.02369,-0.29928 0.123785,-0.63862 0.135986,-0.46097 0.144485,-0.64685 0.04456,-0.97231 -0.04128,-0.13444 -0.292642,-0.55948 -0.395313,-0.66847 -0.115493,-0.12259 -0.442009,-0.37049 -0.577779,-0.43869 -0.04688,-0.0237 -0.166813,-0.0975 -0.266463,-0.16435 -0.217245,-0.14541 -0.405222,-0.25291 -0.738567,-0.42194 -0.137081,-0.0695 -0.305278,-0.16258 -0.37381,-0.20699 -0.06855,-0.0441 -0.156152,-0.0989 -0.19471,-0.12143 -0.125531,-0.0731 -0.744453,-0.53742 -0.966849,-0.72532 -0.121534,-0.10276 -0.460563,-0.46245 -0.579921,-0.61534 -0.116766,-0.14955 -0.166043,-0.24165 -0.21384,-0.39881 -0.03118,-0.10276 -0.03384,-0.13622 -0.02576,-0.32673 0.0098,-0.23009 0.01096,-0.23631 0.19773,-0.80406 0.148157,-0.45075 0.209101,-0.61662 0.389325,-1.05911 0.126982,-0.31179 0.385166,-1.13985 0.368754,-1.18262 -0.005,-0.0148 -0.05597,-0.0468 -0.112739,-0.074 -0.126066,-0.0601 -0.139924,-0.0859 -0.108149,-0.19959 0.05064,-0.18124 0.110518,-0.45463 0.139865,-0.63859 0.01303,-0.0815 0.03483,-0.18302 0.04851,-0.22566 0.0366,-0.11461 0.09062,-0.39744 0.138326,-0.72426 0.0231,-0.15843 0.0634,-0.37225 0.08944,-0.47506 0.02606,-0.10276 0.05703,-0.23247 0.06885,-0.28814 0.01185,-0.0557 0.03865,-0.17502 0.05958,-0.26474 0.03127,-0.13416 0.03968,-0.22092 0.04691,-0.48289 0.008,-0.29617 0.0154,-0.38809 0.05623,-0.72422 0.0234,-0.19338 0.05008,-1.12592 0.03942,-1.38625 -0.01392,-0.34612 -0.03091,-0.44459 -0.08203,-0.48283 -0.157219,-0.11756 -0.502994,-0.44283 -0.565938,-0.53238 -0.02192,-0.0314 -0.03278,-0.0328 -0.181887,-0.0237 l -0.158521,0.006 -0.0083,0.11075 c -0.01125,0.15311 -0.04637,1.9787 -0.04279,2.23683 0.003,0.21826 0.01806,0.31077 0.05532,0.34175 0.03444,0.0296 0.128879,0.0379 0.177889,0.0178 0.03687,-0.0148 0.04798,-0.0331 0.06323,-0.10128 0.03619,-0.16169 0.157129,-0.28933 0.274162,-0.28933 0.06228,0 0.150556,0.0527 0.207562,0.12378 0.07151,0.0892 0.08176,0.19131 0.03391,0.33778 -0.0836,0.25586 -0.226396,0.44382 -0.409758,0.53965 -0.09094,0.0473 -0.105868,0.0503 -0.260333,0.0503 -0.153754,0 -0.170279,-0.002 -0.267767,-0.0509 -0.252397,-0.12438 -0.435984,-0.42031 -0.479021,-0.77248 -0.0098,-0.0818 -0.01096,-0.4052 -0.0023,-0.91304 0.0071,-0.43263 0.008,-0.79655 0.0015,-0.80869 -0.0086,-0.0178 -0.01806,-0.009 -0.0372,0.0266 -0.01392,0.0266 -0.03124,0.0494 -0.03823,0.0494 -0.0068,0 -0.02133,0.0207 -0.03204,0.0426 -0.0658,0.14599 -0.308556,0.42036 -0.549205,0.62135 -0.08368,0.0699 -0.125147,0.11668 -0.13797,0.15547 -0.0313,0.0951 -0.02577,0.38255 0.01244,0.64457 0.01924,0.13267 0.04285,0.30099 0.05215,0.37382 0.0095,0.0728 0.02369,0.17087 0.03186,0.21825 0.008,0.0471 0.02133,0.31699 0.02932,0.59968 0.008,0.28281 0.02133,0.55602 0.03014,0.60743 0.0086,0.0512 0.01599,0.21618 0.01658,0.36602 2.96e-4,0.15015 0.01096,0.39523 0.0234,0.54514 0.01244,0.15013 0.03008,0.38408 0.03897,0.52042 0.0089,0.13652 0.02251,0.27659 0.03035,0.31151 0.008,0.0349 0.02872,0.17501 0.04637,0.31118 0.02985,0.23009 0.03145,0.29755 0.02251,0.95789 -0.0065,0.49483 -0.0041,0.75762 0.0083,0.8661 0.0098,0.0856 0.02428,0.25053 0.03245,0.36602 0.008,0.11579 0.03204,0.32593 0.05348,0.46731 0.03439,0.22654 0.08155,0.59967 0.136046,1.07613 0.0234,0.20551 0.0068,0.52765 -0.05245,1.00316 -0.02517,0.20315 -0.02458,0.47689 0.0014,0.58119 0.01985,0.0791 0.01895,0.0844 -0.01451,0.12023 -0.03684,0.0391 -0.163259,0.0918 -0.353891,0.14719 -0.122867,0.0358 -0.130122,0.0465 -0.0871,0.12971 0.03746,0.0722 0.127545,0.37325 0.144959,0.4842 0.05629,0.35878 0.07504,0.63939 0.08648,1.29448 0.0068,0.37826 0.0033,0.53008 -0.01569,0.70092 -0.02695,0.24195 -0.06107,1.26963 -0.04279,1.28642 0.01836,0.0178 0.175075,0.0568 0.268595,0.0686 0.211768,0.0266 0.253581,0.11313 0.147358,0.30512 -0.125414,0.22683 -0.16557,0.33687 -0.242832,0.66677 -0.07581,0.32365 -0.106017,0.51486 -0.10652,0.67437 -4.72e-4,0.14451 0.0014,0.1528 0.04163,0.19011 0.05549,0.0515 0.136341,0.0818 0.521659,0.19516 0.310706,0.0915 0.603117,0.19308 0.703999,0.2449 0.27825,0.14244 0.557754,0.35305 0.714982,0.53885 0.156745,0.18538 0.230543,0.33088 0.240049,0.47382 0.0065,0.0954 0.003,0.11194 -0.03551,0.17028 -0.0234,0.0355 -0.06426,0.0761 -0.09083,0.0904 -0.221274,0.11846 -0.347369,0.1617 -0.655732,0.22448 -0.175964,0.0358 -0.23143,0.0438 -0.451688,0.0645 -0.161453,0.0148 -0.172144,0.0178 -0.366584,0.0521 -0.133972,0.0237 -0.680755,0.0207 -1.058569,-0.006 -0.124199,-0.009 -0.408075,-0.0148 -0.630805,-0.0118 l -0.404961,0.002 -0.155737,-0.0497 c -0.20848,-0.067 -0.298666,-0.11282 -0.385256,-0.19574 -0.151859,-0.14541 -0.173566,-0.25705 -0.159292,-0.81926 0.0083,-0.32726 0.005,-0.41821 -0.02133,-0.63859 -0.03026,-0.24905 -0.04362,-0.30428 -0.191482,-0.79436 -0.01688,-0.0556 -0.04759,-0.16761 -0.06843,-0.24905 -0.02636,-0.10246 -0.08034,-0.23424 -0.175874,-0.42832 -0.173803,-0.35315 -0.215559,-0.47228 -0.186774,-0.53293 0.02547,-0.0539 0.134535,-0.10987 0.261044,-0.13386 0.08262,-0.0148 0.09438,-0.0237 0.09438,-0.0536 0,-0.0862 -0.06678,-0.50536 -0.09736,-0.61155 -0.0313,-0.10868 -0.03371,-0.15162 -0.03421,-0.61523 -5.25e-4,-0.47642 0.0013,-0.50807 0.04116,-0.71812 0.05804,-0.30595 0.08439,-0.39988 0.147091,-0.5244 0.08523,-0.16939 0.07481,-0.1993 -0.170694,-0.49269 -0.106816,-0.12762 -0.16015,-0.21055 -0.250945,-0.38976 -0.06341,-0.12498 -0.144485,-0.30106 -0.180199,-0.39082 -0.07428,-0.18686 -0.08751,-0.20493 -0.167494,-0.23247 -0.08167,-0.0266 -0.516388,-0.0393 -0.674348,-0.0178 -0.123696,0.0178 -0.323605,0.0966 -0.40889,0.16346 -0.01688,0.0118 -0.04566,0.0892 -0.07314,0.19397 -0.06991,0.26652 -0.302513,0.79859 -0.443728,1.01509 -0.03071,0.047 -0.116234,0.18568 -0.190001,0.30764 -0.07377,0.122 -0.139155,0.2218 -0.145254,0.2218 -0.0062,0 -0.03136,0.0296 -0.05609,0.066 -0.06459,0.0945 -0.188461,0.25882 -0.249732,0.33138 -0.15171,0.17946 -0.603102,0.87606 -0.741634,1.1445 -0.07137,0.1383 -0.06145,0.16051 0.112887,0.25113 0.08126,0.042 0.157485,0.0865 0.169479,0.0986 0.03263,0.0325 0.01126,0.0898 -0.07135,0.1913 -0.303685,0.37284 -0.570009,0.89694 -0.691851,1.36149 -0.02665,0.10188 -0.0027,0.14866 0.145343,0.2831 0.270639,0.2455 0.298945,0.46477 0.100628,0.77914 -0.04415,0.0701 -0.08559,0.12941 -0.09201,0.13238 -0.0065,0.002 -0.01155,0.0178 -0.01155,0.0328 0,0.0148 -0.02636,0.0587 -0.05888,0.096 -0.03239,0.0376 -0.09166,0.11757 -0.131692,0.17739 -0.220829,0.33069 -0.597627,0.53846 -1.132419,0.62452 -0.08191,0.0118 -0.196664,0.034 -0.255033,0.0465 -0.125028,0.0266 -0.487632,0.0296 -0.680817,0.006 -0.28512,-0.0343 -0.554177,-0.15457 -0.744851,-0.33256 -0.08342,-0.0779 -0.173091,-0.30285 -0.173506,-0.43529 -2.34e-4,-0.0791 0.06722,-0.36874 0.115138,-0.49428 0.02103,-0.0553 0.105188,-0.23305 0.186951,-0.39496 0.08176,-0.16228 0.168887,-0.34777 0.193614,-0.41275 0.05878,-0.15458 0.16782,-0.51356 0.267796,-0.88201 l 0.08013,-0.29525 0.01096,-0.31932 c 0.0095,-0.28607 0.01421,-0.32602 0.04489,-0.384 0.04703,-0.0895 0.09529,-0.1226 0.242802,-0.16791 0.06986,-0.0207 0.152333,-0.0562 0.183308,-0.0776 0.06086,-0.0417 0.07012,-0.0686 0.162668,-0.47311 0.07012,-0.30644 0.146202,-0.5169 0.293945,-0.81325 0.07901,-0.15843 0.153191,-0.31197 0.164799,-0.34115 0.04424,-0.11075 0.248636,-0.46866 0.37273,-0.6525 0.0711,-0.10542 0.181797,-0.24875 0.24597,-0.31865 0.148424,-0.16168 0.148897,-0.16228 0.206111,-0.33868 0.05289,-0.16288 0.09399,-0.40071 0.09399,-0.54398 v -0.0924 l -0.120705,-0.0266 c -0.221775,-0.047 -0.370523,-0.10216 -0.612575,-0.22713 -0.132106,-0.0682 -0.303262,-0.15458 -0.38036,-0.1919 -0.07712,-0.0376 -0.160476,-0.0895 -0.185293,-0.11608 -0.04344,-0.0462 -0.04474,-0.0518 -0.03512,-0.15577 0.0053,-0.0592 0.03109,-0.18746 0.05689,-0.28488 0.02576,-0.0975 0.07833,-0.31027 0.116767,-0.47305 0.138473,-0.58612 0.169833,-0.70614 0.274755,-1.05131 0.05857,-0.19279 0.130892,-0.40305 0.160713,-0.46731 0.109067,-0.23483 0.166162,-0.40108 0.299622,-0.87221 0.03032,-0.1072 0.06154,-0.22979 0.06935,-0.27244 0.02724,-0.15014 0.06651,-0.5305 0.100213,-0.97346 0.01688,-0.22004 0.02043,-0.25942 0.03011,-0.32709 0.0056,-0.0385 0.01126,-0.20344 0.01273,-0.36602 0.002,-0.22121 -0.0033,-0.31565 -0.02013,-0.37381 -0.04255,-0.14481 -0.02162,-0.72414 0.0385,-1.07471 0.03026,-0.1759 0.220503,-0.8959 0.248813,-0.94174 0.02665,-0.0429 0.125799,-0.47865 0.177446,-0.77935 0.0065,-0.0385 0.02369,-0.11904 0.03776,-0.17915 0.01421,-0.0601 0.03723,-0.16495 0.05132,-0.23366 0.01392,-0.0687 0.03168,-0.15281 0.03912,-0.18686 0.01717,-0.0791 0.04679,-0.27718 0.05351,-0.35821 0.03233,-0.38986 0.0424,-0.54693 0.05333,-0.83332 0.0071,-0.1842 0.01658,-0.34535 0.02103,-0.35821 0.0044,-0.0118 0.01244,-0.0933 0.01777,-0.17857 0.005,-0.0853 0.01629,-0.16198 0.02458,-0.17058 0.0083,-0.009 0.0151,-0.0471 0.0151,-0.0862 -6e-5,-0.13356 0.151562,-0.69077 0.22909,-0.84185 0.01096,-0.0207 0.01985,-0.0497 0.01985,-0.063 2.96e-4,-0.0691 0.286215,-0.68079 0.392777,-0.84023 0.03148,-0.0471 0.09269,-0.12052 0.136016,-0.16288 0.08866,-0.0871 0.09725,-0.12585 0.0398,-0.17975 -0.07131,-0.0673 -0.03989,-0.20818 0.05756,-0.25853 0.03504,-0.0177 0.07095,-0.0237 0.124466,-0.0177 l 0.07522,0.009 -0.01037,-0.0423 c -0.0056,-0.0207 -0.02695,-0.0868 -0.0475,-0.14156 -0.05555,-0.14865 -0.06323,-0.30842 -0.02192,-0.45874 0.01836,-0.0673 0.03729,-0.17561 0.04193,-0.24135 0.01185,-0.16702 0.01806,-0.18834 0.05979,-0.2073 0.04311,-0.0207 0.215528,0.0237 0.381077,0.0984 0.05472,0.0237 0.114871,0.0441 0.133675,0.0441 0.05052,0 0.08007,-0.0675 0.07303,-0.16762 -0.0033,-0.0459 -0.02961,-0.0444 -0.06755,0.002 -0.04087,0.0521 -0.06071,0.0491 -0.120675,-0.0178 -0.06657,-0.0731 -0.118929,-0.19011 -0.149076,-0.33359 -0.04498,-0.21381 -0.102848,-0.41181 -0.156745,-0.53625 -0.06024,-0.13889 -0.08321,-0.16968 -0.147564,-0.19604 -0.03838,-0.0148 -0.05502,-0.0148 -0.112798,0.0148 -0.03729,0.0178 -0.0724,0.0328 -0.07806,0.0328 -0.03153,0 -0.104063,-0.20907 -0.104358,-0.30075 -2.34e-4,-0.0764 -0.01688,-0.0649 -0.08671,0.0601 -0.06326,0.11312 -0.07433,0.12349 -0.109215,0.10424 -0.05724,-0.032 -0.23457,-0.49164 -0.301749,-0.78221 -0.132165,-0.57146 -0.110132,-1.29797 0.05546,-1.83012 0.08689,-0.27927 0.239603,-0.61759 0.366455,-0.81189 0.0666,-0.10187 0.316189,-0.4201 0.428508,-0.54611 0.06234,-0.0699 0.519348,-0.43171 0.659494,-0.52206 0.169686,-0.10957 0.409767,-0.22269 0.619117,-0.29229 0.223643,-0.0744 0.361239,-0.10364 0.599662,-0.12792 0.100656,-0.009 0.183012,-0.0207 0.183012,-0.0296 0,-0.0237 -0.177119,-0.30481 -0.275674,-0.43647 -0.37327,-0.49855 -0.798957,-0.84784 -1.370076,-1.12419 -1.125857,-0.54469 -2.476538,-0.47989 -3.548661,0.17027 -0.07712,0.0465 -0.177652,0.11313 -0.223434,0.14748 -0.04578,0.0343 -0.08849,0.0565 -0.09485,0.0491 -0.0065,-0.006 -0.02132,-0.0379 -0.03279,-0.0678 -0.01155,-0.0299 -0.03325,-0.0633 -0.04801,-0.074 -0.01481,-0.009 -0.08742,-0.11046 -0.161483,-0.22151 -0.544536,-0.81751 -1.265995,-1.3802 -2.145383,-1.67332 -0.402488,-0.13415 -0.742006,-0.18716 -1.203498,-0.18746 -0.640679,-5.3e-4 -1.136997,0.11609 -1.717934,0.40423 -0.156744,0.0779 -0.287637,0.13859 -0.290864,0.13533 -0.0059,-0.006 0.0071,-0.0447 0.06947,-0.20551 0.01836,-0.047 0.0359,-0.0983 0.03927,-0.11372 0.01836,-0.0841 0.310331,-0.80697 0.375445,-0.92963 0.02044,-0.0385 0.03714,-0.0753 0.03714,-0.0818 0,-0.0506 0.432427,-0.92264 0.658314,-1.3277 1.212776,-2.17471 2.904774,-4.02603 4.91769,-5.3808 1.882821,-1.26719 3.996172,-2.07778 6.172867,-2.36761 0.541095,-0.072 1.26818,-0.12526 1.710584,-0.12526 h 0.169034 l 2.37e-4,-0.0429 c 1.75e-4,-0.0237 0.01421,-0.10928 0.03124,-0.19071 0.0908,-0.43346 0.253968,-0.74964 0.442718,-0.85791 0.134565,-0.0773 0.236584,-0.0533 0.375173,0.0874 0.161601,0.16406 0.296245,0.50947 0.365453,0.93701 0.02044,0.12674 0.0092,0.11934 0.210316,0.13711 0.191421,0.0178 0.708707,0.0853 0.950102,0.12615 2.528811,0.42688 4.926339,1.53271 6.938399,3.20014 0.498476,0.41311 1.175423,1.06339 1.607412,1.54411 1.155435,1.28571 2.086102,2.73118 2.796033,4.34263 0.139746,0.31725 0.412194,1.01054 0.428426,1.09026 0.0036,0.0178 -0.01007,0.0237 -0.05754,0.0237 -0.03658,-5e-4 -0.06917,0.006 -0.07892,0.0207 -0.01362,0.0178 -0.03159,0.0207 -0.101249,0.006 -0.312808,-0.064 -0.970675,-0.0954 -1.377394,-0.0658 -0.770879,0.0559 -1.450061,0.23099 -2.08711,0.53778 -0.607612,0.29258 -1.122015,0.69234 -1.458372,1.13328 -0.05026,0.0658 -0.09828,0.12409 -0.106788,0.12942 -0.0083,0.006 -0.07682,-0.0207 -0.151858,-0.0556 -0.447853,-0.21322 -0.939519,-0.35611 -1.475934,-0.42917 -0.280353,-0.0382 -0.947017,-0.0388 -1.222673,-0.001 -0.227285,0.0311 -0.439093,0.0713 -0.455191,0.0865 -0.0062,0.006 0.03507,0.042 0.09174,0.0806 0.20235,0.13681 0.484823,0.47684 0.620234,0.7465 0.228972,0.45587 0.322764,0.68425 0.435338,1.05984 0.117299,0.39137 0.146172,0.5108 0.22764,0.94145 0.06178,0.32664 0.141494,0.59792 0.300475,1.0228 0.07178,0.19159 0.142766,0.39501 0.157751,0.45157 0.0151,0.0565 0.06326,0.17205 0.107319,0.25646 0.06775,0.1297 0.09115,0.16021 0.151712,0.19752 0.100241,0.0618 0.216298,0.0892 0.382992,0.0895 0.07874,1.7e-4 0.147447,0.006 0.152718,0.0148 0.0154,0.0237 -0.0092,0.0556 -0.201106,0.24994 -0.141642,0.14303 -0.180791,0.19159 -0.173447,0.21499 0.005,0.0178 0.04958,0.058 0.09858,0.0924 0.06879,0.0482 0.106046,0.0909 0.163319,0.18715 0.104803,0.1765 0.149222,0.27955 0.176912,0.41077 0.03587,0.16998 0.02399,0.28193 -0.04498,0.4214 -0.0921,0.18628 -0.367285,0.45025 -0.444077,0.42588 -0.01629,-0.006 -0.04984,-0.0497 -0.07433,-0.0986 -0.02428,-0.0491 -0.04863,-0.0927 -0.05357,-0.0969 -0.005,-0.006 -0.02547,-0.0296 -0.04596,-0.0545 -0.02013,-0.0266 -0.03284,-0.0352 -0.02784,-0.0207 0.005,0.0148 0.01747,0.0687 0.02813,0.12172 0.03557,0.18093 -0.03142,0.28399 -0.300161,0.463 -0.08395,0.0556 -0.152628,0.1072 -0.152628,0.11431 0,0.006 0.04881,0.10276 0.108444,0.21233 0.168887,0.31127 0.295485,0.66444 0.325629,0.90855 0.03584,0.29021 0.06432,1.00452 0.06432,1.61282 0,0.33895 0.0068,0.68072 0.0154,0.75946 0.0083,0.0788 0.0231,0.22388 0.03307,0.32229 0.02251,0.22418 0.03853,0.34438 0.05975,0.44391 0.06388,0.29921 0.172944,1.30108 0.188196,1.72884 0.01273,0.36304 0.01924,0.44551 0.0634,0.81772 0.06983,0.5899 0.09559,0.7818 0.131751,0.98125 0.04471,0.24668 0.08321,0.49982 0.139776,0.91897 0.02251,0.16702 0.05817,0.41234 0.07916,0.54512 0.09029,0.5714 0.09133,0.58138 0.07077,0.67333 -0.04566,0.20404 -0.194355,0.32789 -0.549058,0.45706 l -0.205726,0.075 -0.07714,0.16436 c -0.09399,0.20048 -0.198174,0.45196 -0.277657,0.67063 -0.0327,0.0901 -0.07839,0.20907 -0.101574,0.26474 -0.0231,0.0556 -0.08941,0.22388 -0.14721,0.37381 -0.05777,0.15015 -0.134416,0.34616 -0.170249,0.43613 -0.03586,0.0901 -0.09393,0.25112 -0.129085,0.3582 l -0.06394,0.19457 -0.0062,0.33332 c -0.0036,0.19723 0.0013,0.3973 0.01214,0.48972 0.01007,0.0862 0.02428,0.34251 0.03127,0.57004 0.0148,0.46393 0.02013,0.49401 0.136044,0.72497 0.175669,0.35062 0.537298,0.79246 0.928929,1.13503 0.05034,0.0438 0.166636,0.16169 0.258409,0.26149 0.178214,0.19367 0.235754,0.29785 0.236288,0.42736 3.52e-4,0.0809 -0.102642,0.33383 -0.27979,0.68694 -0.325342,0.64857 -0.458345,1.04243 -0.501344,1.48447 -0.01303,0.13563 0.01985,0.4785 0.06962,0.71756 0.04282,0.20641 0.206733,0.49899 0.49283,0.87894 0.06361,0.0844 0.171078,0.30636 0.207029,0.42742 0.02754,0.0924 0.01274,0.24312 -0.03364,0.34499 -0.07205,0.15873 -0.4302,0.49064 -1.031555,0.95655 -0.287667,0.2227 -0.456597,0.36852 -0.686263,0.59165 -0.167554,0.16288 -0.347285,0.33005 -0.399381,0.37156 -0.274134,0.21856 -0.668229,0.38158 -1.07454,0.44448 -0.106846,0.0177 -0.429575,0.0207 -0.495427,0.006 z m -0.186328,-10.43697 c -0.02665,-0.0687 -0.05674,-0.23868 -0.09343,-0.52567 -0.02192,-0.17117 -0.05067,-0.35705 -0.06391,-0.41276 -0.02517,-0.10572 -0.07924,-0.23364 -0.09877,-0.23364 -0.0062,0 -0.02784,0.0299 -0.04833,0.0661 -0.02044,0.0364 -0.0698,0.10839 -0.109866,0.15962 -0.130241,0.16701 -0.279375,0.41562 -0.279375,0.46552 0,0.0266 0.126776,0.12616 0.277835,0.22033 0.05431,0.034 0.134683,0.0898 0.178659,0.12408 0.114427,0.0892 0.218875,0.16169 0.234391,0.16258 0.0074,4.5e-4 0.0086,-0.0118 0.003,-0.0266 z m -5.0276,-10.22526 c 0.06858,-0.0903 0.197404,-0.30792 0.299497,-0.50624 0.04465,-0.0868 0.09251,-0.15251 0.147121,-0.20256 0.0759,-0.0693 0.230867,-0.15902 0.27668,-0.16021 0.01125,-2.3e-4 0.03362,-0.009 0.04966,-0.0207 0.02784,-0.0207 0.02636,-0.0266 -0.03507,-0.0954 -0.126953,-0.14422 -0.196249,-0.50436 -0.136549,-0.70969 0.03059,-0.10513 0.132462,-0.25913 0.229092,-0.34593 0.09151,-0.0824 0.295751,-0.18834 0.407664,-0.21144 l 0.08478,-0.0177 0.01155,-0.42386 c 0.0065,-0.23306 0.01421,-0.53947 0.01806,-0.68082 0.0036,-0.14126 0.04552,-1.66497 0.09331,-3.38582 0.04777,-1.72084 0.08102,-3.13465 0.07389,-3.14182 -0.0071,-0.006 -0.104003,-0.0296 -0.215232,-0.047 -0.160181,-0.0266 -0.267026,-0.0343 -0.513752,-0.0346 -0.345096,-5.1e-4 -0.525044,0.0207 -0.833283,0.10039 -0.581864,0.15014 -1.109247,0.45835 -1.518827,0.8879 -0.122896,0.12882 -0.280914,0.32318 -0.270105,0.33205 0.003,0.002 0.05105,0.0118 0.106638,0.0237 0.263858,0.0506 0.903823,0.28281 1.168261,0.42371 0.306975,0.16347 0.589714,0.36703 0.806058,0.57966 0.07922,0.0779 0.144071,0.14718 0.144071,0.15339 0,0.009 -0.0154,0.0118 -0.03379,0.0118 -0.01836,0 -0.07883,0.006 -0.133883,0.0177 l -0.100124,0.0178 0.147061,0.14422 c 0.382271,0.37425 0.574896,0.87593 0.552644,1.4393 -0.0092,0.22922 -0.03142,0.32422 -0.128316,0.54514 -0.04415,0.10068 -0.0791,0.20344 -0.178304,0.52342 -0.02931,0.0948 -0.05091,0.25201 -0.04863,0.35533 0.0036,0.16524 0.04267,0.24787 0.181444,0.3845 0.132728,0.1309 0.168916,0.18745 0.157514,0.24728 -0.01273,0.0666 -0.148215,0.4243 -0.191007,0.50405 -0.03675,0.0687 -0.03788,0.0764 -0.0154,0.10868 0.01333,0.0207 0.02428,0.0572 0.02428,0.085 0,0.04 -0.01273,0.0607 -0.06275,0.10069 -0.07948,0.0639 -0.09077,0.10572 -0.04527,0.16702 0.04069,0.055 0.04362,0.13237 0.0065,0.17353 -0.01421,0.0148 -0.06533,0.0441 -0.113924,0.0636 -0.169509,0.0678 -0.195362,0.0998 -0.220148,0.27482 -0.02133,0.14926 -0.06846,0.2455 -0.175402,0.3569 -0.153813,0.16022 -0.170752,0.16436 -0.701026,0.17028 -0.268861,0.002 -0.474228,0.0118 -0.514077,0.0207 -0.102138,0.0266 -0.19619,0.0744 -0.213514,0.10661 -0.0148,0.0266 -0.005,0.0296 0.205933,0.0358 0.189439,0.006 0.233533,0.0118 0.304108,0.0429 0.112799,0.0497 0.136045,0.096 0.11345,0.22566 -0.02488,0.14333 -0.02547,0.14155 0.06855,0.17975 0.100657,0.0408 0.204956,0.12853 0.290362,0.24431 0.0913,0.1235 0.195509,0.3495 0.22385,0.48516 0.09349,0.44767 0.114338,0.5324 0.131128,0.5324 0.0071,0 0.04107,-0.0367 0.07525,-0.0818 z m 3.064251,-1.49915 c 0.0053,-0.0512 0.01214,-0.10395 0.0154,-0.11668 0.0036,-0.0118 0.02103,-0.15636 0.03865,-0.3193 0.06305,-0.57726 0.09097,-0.70504 0.201994,-0.92333 0.06616,-0.13 0.08748,-0.16139 0.22225,-0.32696 0.123608,-0.15162 0.124289,-0.16021 0.02369,-0.30017 -0.16329,-0.22743 -0.230453,-0.37579 -0.193229,-0.42631 0.0154,-0.0207 0.283373,-0.1072 0.436615,-0.14096 0.04329,-0.009 0.04418,-0.0118 0.03373,-0.083 -0.0151,-0.10187 -0.07996,-0.25971 -0.148778,-0.36141 -0.111021,-0.16376 -0.156538,-0.18419 -0.288229,-0.1291 -0.06885,0.0296 -0.131871,0.0408 -0.243454,0.047 -0.134772,0.006 -0.158463,0.006 -0.225833,-0.0266 -0.04294,-0.0207 -0.123371,-0.085 -0.187218,-0.15013 -0.09748,-0.0995 -0.127901,-0.1457 -0.235458,-0.35952 -0.14715,-0.29228 -0.153843,-0.31188 -0.24449,-0.71783 -0.06761,-0.30268 -0.07042,-0.32513 -0.06358,-0.50622 0.008,-0.21617 0.03684,-0.3635 0.0955,-0.49063 0.04981,-0.10779 0.06198,-0.21915 0.03512,-0.32065 -0.01599,-0.0608 -0.03115,-0.0827 -0.07234,-0.10573 -0.06163,-0.0343 -0.172677,-0.0509 -0.203031,-0.0302 -0.01777,0.0118 -0.03047,0.42288 -0.07259,2.33309 -0.02813,1.27522 -0.0549,2.44942 -0.05949,2.60934 l -0.0083,0.2908 0.109718,0.0178 c 0.06767,0.0118 0.155412,0.0417 0.228943,0.0791 0.101723,0.0521 0.134949,0.08 0.226781,0.1916 0.132876,0.1617 0.400545,0.40683 0.484271,0.44361 l 0.06231,0.0266 0.01096,-0.0556 c 0.0059,-0.0305 0.0151,-0.0978 0.01984,-0.14925 z m -0.859571,-7.60079 c 0.02695,-0.0687 0.08582,-0.19812 0.130982,-0.28814 0.07629,-0.15191 0.08013,-0.16524 0.05499,-0.18479 -0.03663,-0.0296 -0.283521,-0.14836 -0.290539,-0.14066 -0.0033,0.002 -0.01007,0.22684 -0.0154,0.49664 l -0.0098,0.49065 0.04045,-0.12468 c 0.02221,-0.0687 0.06246,-0.18065 0.08935,-0.24935 z"
       id="path385" /><text
       xml:space="preserve"
       transform="matrix(0.38130924,0,0,0.38130924,-180.61027,-118.16623)"
       id="text439"
       style="font-size:54.2958px;line-height:0.85;white-space:pre;shape-inside:url(#rect441);fill:#000000"><tspan
         x="695.61719"
         y="779.30154"
         id="tspan295"><tspan
           style="font-weight:bold;font-family:Candara;-inkscape-font-specification:'Candara Bold'"
           id="tspan293">weather
</tspan></tspan><tspan
         x="695.61719"
         y="828.85843"
         id="tspan299"><tspan
           style="font-weight:bold;font-family:Candara;-inkscape-font-specification:'Candara Bold'"
           id="tspan297">alternative
</tspan></tspan><tspan
         x="695.61719"
         y="878.41531"
         id="tspan303"><tspan
           style="font-family:Candara;-inkscape-font-specification:Candara"
           id="tspan301">project</tspan></tspan></text></g></svg>
